<svg xmlns="http://www.w3.org/2000/svg" viewBox="0 0 260 360" fill="none"><defs><pattern id="linen" width="5" height="5" patternUnits="userSpaceOnUse"><path d="M0 1h5M1 0v5" stroke="#fff" opacity=".035"/></pattern></defs><rect x="4" y="3" width="252" height="354" rx="12" fill="#133b35"/><rect x="4" y="3" width="252" height="354" rx="12" fill="url(#linen)"/><path d="M27 9v342" stroke="#061f1b" stroke-width="9"/><g stroke="#cfbb83"><rect x="43" y="23" width="192" height="312" rx="4"/><rect x="51" y="31" width="176" height="296" rx="2" opacity=".4"/><path d="M58 72V40h32M188 40h32v32M58 288v32h32M188 320h32v-32"/><path d="m75 120 64-43 64 43M75 240l64 43 64-43" opacity=".5"/></g><g color="#e6d49e" transform="translate(139 180) scale(1.55)"><path d="M0-30 8-8 30 0 8 8 0 30-8 8-30 0-8-8Z" fill="none" stroke="currentColor" stroke-width="1.5"/></g></svg>
